<?xml version="1.0" encoding="UTF-8" standalone="no"?>
<!-- Created with Inkscape (http://www.inkscape.org/) -->

<svg
   xmlns:dc="http://purl.org/dc/elements/1.1/"
   xmlns:cc="http://creativecommons.org/ns#"
   xmlns:rdf="http://www.w3.org/1999/02/22-rdf-syntax-ns#"
   xmlns:svg="http://www.w3.org/2000/svg"
   xmlns="http://www.w3.org/2000/svg"
   xmlns:sodipodi="http://sodipodi.sourceforge.net/DTD/sodipodi-0.dtd"
   xmlns:inkscape="http://www.inkscape.org/namespaces/inkscape"
   width="420mm"
   height="297mm"
   viewBox="0 0 1488.189 1052.3622"
   id="svg2"
   version="1.1"
   inkscape:version="0.91 r13725"
   sodipodi:docname="PiTop-Slice.svg">
  <defs
     id="defs4" />
  <sodipodi:namedview
     id="base"
     pagecolor="#ffffff"
     bordercolor="#666666"
     borderopacity="1.0"
     inkscape:pageopacity="0.0"
     inkscape:pageshadow="2"
     inkscape:zoom="0.84381594"
     inkscape:cx="552.10949"
     inkscape:cy="620.98851"
     inkscape:document-units="mm"
     inkscape:current-layer="layer1"
     showgrid="false"
     showguides="true"
     inkscape:guide-bbox="true"
     inkscape:snap-bbox="true"
     inkscape:snap-bbox-midpoints="true"
     inkscape:bbox-nodes="true"
     inkscape:window-width="1920"
     inkscape:window-height="1057"
     inkscape:window-x="-8"
     inkscape:window-y="-8"
     inkscape:window-maximized="1"
     inkscape:object-nodes="true"
     inkscape:snap-smooth-nodes="true"
     inkscape:snap-midpoints="true"
     inkscape:snap-intersection-paths="true" />
  <metadata
     id="metadata7">
    <rdf:RDF>
      <cc:Work
         rdf:about="">
        <dc:format>image/svg+xml</dc:format>
        <dc:type
           rdf:resource="http://purl.org/dc/dcmitype/StillImage" />
        <dc:title></dc:title>
      </cc:Work>
    </rdf:RDF>
  </metadata>
  <g
     inkscape:label="Layer 1"
     inkscape:groupmode="layer"
     id="layer1"
     transform="translate(0,-1.5511811e-4)">
    <path
       id="path4815"
       style="fill:#f28c8c;fill-opacity:0.25116284;fill-rule:evenodd;stroke:none;stroke-width:1px;stroke-linecap:butt;stroke-linejoin:miter;stroke-opacity:1"
       d="m 185.77976,361.81136 c 7.74466,-1.2e-4 11.29897,-7.08672 17.71654,-7.08664 l 1081.4173,0 c 9.815,0 17.7166,7.90157 17.7166,17.71653 l 0,315.35434 c 0,9.81496 -7.9016,17.71654 -17.7166,17.71654 l -1116.14171,0 c -9.81496,0 -17.71654,-7.90158 -17.71654,-17.71654 l 0,-315.35434 c 0,-9.81496 7.90158,-17.71653 17.71654,-17.71653 l 9.92126,3e-5 c 1.95692,0 3.54331,1.58639 3.54331,3.54331 m 3.5433,3.5433 c -1.95691,0 -3.5433,-1.5864 -3.5433,-3.54331"
       inkscape:connector-curvature="0"
       sodipodi:nodetypes="cccssssssccccc" />
    <path
       style="opacity:1;fill:#ed1c24;fill-opacity:1;stroke:none;stroke-width:0.70866144;stroke-miterlimit:4;stroke-dasharray:none;stroke-opacity:1"
       d="m 1227.079,512.40191 c -9.7846,0 -17.7166,7.93196 -17.7166,17.71654 0,9.78458 7.932,17.71654 17.7166,17.71654 z"
       id="path4142"
       inkscape:connector-curvature="0"
       sodipodi:nodetypes="cscc" />
  </g>
</svg>
